<svg xmlns="http://www.w3.org/2000/svg" xmlns:xlink="http://www.w3.org/1999/xlink" width="500" zoomAndPan="magnify" viewBox="0 0 375 374.999991" height="500" preserveAspectRatio="xMidYMid meet" version="1.0"><defs><g/></defs><g fill="#000000" fill-opacity="1"><g transform="translate(98.208359, 215.33244)"><g><path d="M 15.132812 -48.007812 C 15.46875 -51.707031 15.890625 -55.40625 16.226562 -59.105469 C 16.308594 -60.617188 16.226562 -62.132812 16.058594 -63.644531 C 15.890625 -64.570312 15.386719 -64.988281 14.460938 -64.988281 C 13.285156 -64.988281 12.105469 -65.074219 10.929688 -65.074219 C 8.828125 -65.15625 8.660156 -65.074219 8.238281 -62.972656 C 7.0625 -57.675781 6.222656 -52.378906 5.632812 -46.996094 C 5.042969 -41.363281 4.707031 -35.648438 4.457031 -29.929688 C 4.121094 -21.523438 3.867188 -13.117188 4.792969 -4.707031 C 5.042969 -1.851562 5.042969 -1.851562 7.902344 -1.851562 C 8.492188 -1.933594 9.164062 -1.933594 9.753906 -1.933594 C 12.023438 -2.019531 12.023438 -2.019531 12.191406 -4.121094 C 12.78125 -12.191406 13.703125 -20.261719 15.386719 -28.164062 C 16.816406 -35.144531 19 -41.867188 22.363281 -48.257812 C 23.371094 -50.191406 24.550781 -51.957031 25.980469 -53.554688 C 27.070312 -54.648438 28.082031 -54.648438 28.921875 -53.386719 C 29.34375 -52.714844 29.679688 -51.957031 29.929688 -51.203125 C 31.109375 -48.34375 31.863281 -45.316406 32.199219 -42.289062 C 33.292969 -32.621094 34.300781 -23.035156 34.132812 -13.367188 C 34.132812 -11.265625 34.21875 -9.25 34.21875 -7.144531 C 34.300781 -5.378906 34.386719 -5.296875 36.152344 -5.296875 C 36.910156 -5.296875 37.582031 -5.378906 38.339844 -5.378906 C 40.691406 -5.550781 40.777344 -5.632812 40.859375 -8.070312 C 41.027344 -12.863281 40.945312 -17.738281 41.449219 -22.53125 C 42.375 -31.695312 45.0625 -40.355469 49.4375 -48.511719 C 49.855469 -49.351562 50.445312 -50.109375 51.117188 -50.78125 C 53.136719 -53.136719 55.488281 -52.882812 57.003906 -50.109375 C 57.84375 -48.761719 58.347656 -47.25 58.601562 -45.652344 C 59.1875 -41.449219 58.851562 -37.246094 58.851562 -33.042969 C 58.769531 -25.054688 58.347656 -17.066406 58.9375 -9.078125 C 59.1875 -5.632812 59.523438 -2.269531 60.785156 0.925781 C 62.132812 4.457031 68.101562 6.222656 70.707031 2.355469 C 71.125 1.679688 71.632812 1.09375 72.136719 0.421875 C 76.003906 -4.960938 78.863281 -10.84375 81.382812 -16.984375 C 81.804688 -18.074219 82.054688 -19.253906 82.394531 -20.347656 C 82.5625 -20.851562 82.308594 -21.269531 81.804688 -21.523438 C 81.300781 -21.691406 80.710938 -21.859375 80.375 -21.269531 C 80.121094 -20.851562 79.953125 -20.347656 79.785156 -19.925781 C 78.527344 -15.890625 76.675781 -12.105469 74.742188 -8.40625 C 72.976562 -5.042969 70.707031 -1.933594 68.015625 0.757812 C 67.511719 1.34375 67.089844 2.269531 66.167969 1.933594 C 65.324219 1.597656 65.242188 0.671875 64.988281 -0.0859375 C 64.90625 -0.335938 64.90625 -0.671875 64.820312 -1.007812 C 63.644531 -8.324219 63.898438 -15.722656 64.652344 -23.035156 C 65.324219 -29.929688 65.660156 -36.824219 65.324219 -43.71875 C 65.15625 -46.492188 64.738281 -49.269531 63.390625 -51.707031 C 60.871094 -56.582031 55.65625 -58.179688 50.863281 -55.488281 C 48.761719 -54.394531 47.082031 -52.714844 45.652344 -50.78125 C 43.632812 -47.921875 42.121094 -44.980469 40.777344 -41.785156 C 40.609375 -41.195312 40.609375 -40.523438 39.765625 -40.1875 C 39.515625 -41.363281 39.347656 -42.457031 39.09375 -43.464844 C 38.253906 -47.503906 37.496094 -51.453125 35.3125 -54.984375 C 32.621094 -59.355469 28.417969 -60.113281 24.128906 -57.171875 C 21.945312 -55.574219 20.429688 -53.554688 19 -51.285156 C 17.488281 -48.929688 16.394531 -46.410156 14.796875 -43.972656 C 14.882812 -45.316406 15.050781 -46.660156 15.132812 -48.007812 Z M 15.132812 -48.007812 "/></g></g></g><g fill="#000000" fill-opacity="1"><g transform="translate(178.159121, 215.33244)"><g><path d="M 20.597656 -23.960938 C 21.1875 -23.878906 21.691406 -23.707031 22.195312 -23.625 C 27.070312 -22.449219 31.863281 -23.371094 36.574219 -24.550781 C 37.582031 -24.800781 37.832031 -25.304688 37.582031 -26.316406 C 37.414062 -27.238281 36.742188 -27.324219 35.984375 -27.15625 C 35.058594 -26.902344 34.132812 -26.820312 33.210938 -26.566406 C 27.324219 -25.054688 22.617188 -26.988281 18.496094 -31.109375 C 17.824219 -31.78125 17.152344 -32.453125 16.480469 -33.125 C 15.636719 -34.050781 14.714844 -34.890625 13.703125 -35.648438 C 11.183594 -37.496094 9.25 -37.496094 6.808594 -35.5625 C 5.296875 -34.46875 4.203125 -33.042969 3.195312 -31.527344 C -0.0859375 -26.484375 -1.765625 -20.933594 -2.269531 -14.964844 C -2.605469 -11.6875 -2.101562 -8.492188 -0.589844 -5.550781 C 0.839844 -2.773438 2.941406 -0.839844 5.96875 -0.167969 C 11.9375 1.261719 16.480469 -1.09375 18.832031 -6.726562 C 20.933594 -11.9375 21.691406 -17.234375 20.261719 -22.785156 C 20.179688 -23.035156 20.261719 -23.371094 20.179688 -23.792969 C 20.515625 -23.878906 20.515625 -23.960938 20.597656 -23.960938 Z M 12.023438 -29.425781 C 16.480469 -22.027344 17.402344 -14.292969 13.621094 -6.390625 C 13.03125 -5.296875 12.441406 -4.289062 11.519531 -3.445312 C 10.425781 -2.4375 9.417969 -2.523438 8.492188 -3.785156 C 7.902344 -4.539062 7.652344 -5.378906 7.316406 -6.304688 C 6.304688 -9.921875 6.304688 -13.535156 6.808594 -17.152344 C 7.316406 -20.515625 7.902344 -23.878906 8.996094 -27.070312 C 9.417969 -28.332031 9.921875 -29.59375 10.761719 -30.601562 C 11.433594 -30.351562 11.769531 -29.847656 12.023438 -29.425781 Z M 12.023438 -29.425781 "/></g></g></g><g fill="#000000" fill-opacity="1"><g transform="translate(213.300523, 215.33244)"><g><path d="M 24.71875 -24.550781 C 23.289062 -25.054688 23.121094 -25.054688 22.28125 -23.539062 C 22.195312 -23.289062 22.027344 -22.953125 21.859375 -22.699219 C 19.085938 -17.234375 16.308594 -11.855469 13.535156 -6.390625 C 13.03125 -5.378906 12.527344 -4.457031 11.9375 -3.53125 C 11.097656 -2.269531 10.339844 -2.355469 9.585938 -3.613281 C 8.910156 -4.875 8.492188 -6.304688 8.238281 -7.652344 C 7.652344 -11.265625 7.652344 -14.964844 7.484375 -18.582031 C 7.230469 -25.222656 7.902344 -31.863281 8.40625 -38.507812 C 8.660156 -41.785156 8.574219 -41.867188 5.128906 -41.953125 C 4.960938 -41.953125 4.707031 -41.953125 4.457031 -41.953125 C 3.613281 -42.039062 3.109375 -41.699219 2.859375 -40.859375 C 2.605469 -40.1875 2.269531 -39.597656 2.101562 -38.84375 C 0.503906 -32.621094 -0.503906 -26.316406 -0.503906 -19.421875 C -0.589844 -16.226562 -0.335938 -12.609375 0.503906 -8.996094 C 1.09375 -6.726562 1.851562 -4.625 3.277344 -2.773438 C 6.808594 1.765625 14.125 1.34375 16.984375 -3.613281 C 17.738281 -4.960938 18.414062 -6.472656 19 -7.902344 C 21.101562 -12.695312 23.203125 -17.488281 25.304688 -22.28125 C 25.644531 -23.203125 26.0625 -24.046875 24.71875 -24.550781 Z M 6.976562 -46.410156 C 9.25 -46.492188 10.59375 -47.753906 10.59375 -49.855469 C 10.59375 -51.875 9.164062 -53.136719 6.726562 -53.050781 C 4.875 -53.050781 3.363281 -51.285156 3.445312 -49.269531 C 3.445312 -47.332031 4.625 -46.410156 6.976562 -46.410156 Z M 6.976562 -46.410156 "/></g></g></g><g fill="#000000" fill-opacity="1"><g transform="translate(237.344666, 215.33244)"><g><path d="M 23.707031 -28.25 C 24.800781 -32.199219 25.390625 -36.234375 24.886719 -40.273438 C 24.382812 -44.558594 22.449219 -48.007812 18.160156 -49.519531 C 13.871094 -51.03125 10.257812 -49.6875 7.144531 -46.492188 C 5.296875 -44.644531 3.867188 -42.457031 2.773438 -40.019531 C 0.839844 -35.648438 -0.0859375 -30.9375 -0.421875 -26.230469 C -0.671875 -22.785156 -0.421875 -19.421875 0.421875 -16.058594 C 0.839844 -14.714844 1.679688 -14.375 3.445312 -14.628906 C 4.792969 -14.796875 4.457031 -15.804688 4.457031 -16.648438 C 4.289062 -19.671875 4.203125 -22.617188 4.457031 -25.644531 C 4.960938 -31.695312 6.640625 -37.328125 9.921875 -42.457031 C 10.761719 -43.71875 11.6875 -44.894531 12.949219 -45.820312 C 14.460938 -46.996094 15.636719 -46.746094 16.5625 -44.980469 C 16.898438 -44.390625 17.066406 -43.804688 17.066406 -43.214844 C 17.152344 -40.441406 17.320312 -37.664062 16.816406 -34.890625 C 15.636719 -28.585938 13.621094 -22.617188 11.601562 -16.648438 C 9.835938 -11.6875 9.417969 -12.527344 14.714844 -10.59375 C 15.636719 -10.171875 16.308594 -10.257812 16.898438 -11.265625 C 17.90625 -12.949219 19.503906 -14.039062 21.101562 -15.132812 C 22.449219 -16.058594 22.785156 -15.890625 23.371094 -14.207031 C 23.878906 -12.949219 23.792969 -11.601562 23.878906 -10.257812 C 24.046875 -8.492188 23.371094 -7.484375 21.691406 -6.808594 C 18.074219 -5.296875 14.460938 -3.613281 10.84375 -1.933594 C 8.996094 -1.09375 7.144531 -0.167969 5.632812 1.261719 C 2.773438 4.035156 3.195312 7.144531 6.808594 8.910156 C 11.769531 11.265625 16.5625 10.84375 21.019531 7.820312 C 25.558594 4.792969 28.835938 0.589844 30.519531 -4.625 C 30.9375 -6.136719 31.695312 -7.0625 33.042969 -7.820312 C 35.648438 -9.25 38.085938 -10.84375 40.609375 -12.359375 C 41.617188 -12.863281 41.953125 -13.535156 41.449219 -14.628906 C 40.945312 -15.722656 40.1875 -15.972656 39.09375 -15.636719 C 37.328125 -14.964844 35.730469 -13.957031 33.964844 -13.117188 C 33.125 -12.695312 32.285156 -11.9375 31.277344 -11.9375 C 28.5 -18.246094 26.902344 -19.503906 20.851562 -20.261719 C 22.027344 -23.035156 22.953125 -25.644531 23.707031 -28.25 Z M 11.9375 7.230469 C 11.183594 7.566406 10.507812 7.652344 9.921875 6.976562 C 9.417969 6.304688 9.667969 5.632812 10.003906 4.960938 C 10.507812 4.121094 11.183594 3.53125 12.023438 3.027344 C 14.714844 1.429688 17.488281 0.167969 20.515625 -0.671875 C 18.582031 3.027344 15.554688 5.464844 11.9375 7.230469 Z M 11.9375 7.230469 "/></g></g></g></svg>