<svg xmlns="http://www.w3.org/2000/svg" xmlns:xlink="http://www.w3.org/1999/xlink" width="500" zoomAndPan="magnify" viewBox="0 0 375 374.999991" height="500" preserveAspectRatio="xMidYMid meet" version="1.0"><defs><g/><clipPath id="5dd638f269"><path d="M 22.359375 22.359375 L 352.640625 22.359375 L 352.640625 352.640625 L 22.359375 352.640625 Z M 22.359375 22.359375 " clip-rule="nonzero"/></clipPath><clipPath id="b5cdd36865"><path d="M 187.5 22.359375 C 96.292969 22.359375 22.359375 96.292969 22.359375 187.5 C 22.359375 278.707031 96.292969 352.640625 187.5 352.640625 C 278.707031 352.640625 352.640625 278.707031 352.640625 187.5 C 352.640625 96.292969 278.707031 22.359375 187.5 22.359375 Z M 187.5 22.359375 " clip-rule="nonzero"/></clipPath></defs><g clip-path="url(#5dd638f269)"><g clip-path="url(#b5cdd36865)"><path fill="#ffffff" d="M 22.359375 22.359375 L 352.640625 22.359375 L 352.640625 352.640625 L 22.359375 352.640625 Z M 22.359375 22.359375 " fill-opacity="1" fill-rule="nonzero"/></g></g><g fill="#000000" fill-opacity="1"><g transform="translate(62.291918, 297.161497)"><g><path d="M 191.8125 0 L 191.8125 -125.328125 C 191.8125 -128.171875 191.832031 -131.007812 191.875 -133.84375 C 191.925781 -136.675781 192.394531 -148.859375 193.28125 -170.390625 C 186.332031 -144.066406 181.195312 -125.722656 177.875 -115.359375 L 140.59375 0 L 109.78125 0 L 72.5 -115.359375 L 56.796875 -170.390625 C 57.972656 -147.691406 58.5625 -132.671875 58.5625 -125.328125 L 58.5625 0 L 20.109375 0 L 20.109375 -206.78125 L 78.078125 -206.78125 L 115.0625 -91.140625 L 118.28125 -79.984375 L 125.328125 -52.25 L 134.578125 -85.40625 L 172.59375 -206.78125 L 230.265625 -206.78125 L 230.265625 0 Z M 191.8125 0 "/></g></g></g></svg>